<?xml version="1.0" encoding="UTF-8" standalone="no"?>
<!DOCTYPE svg PUBLIC "-//W3C//DTD SVG 1.1//EN" "http://www.w3.org/Graphics/SVG/1.1/DTD/svg11.dtd">
<svg version="1.1" xmlns="http://www.w3.org/2000/svg" xmlns:xlink="http://www.w3.org/1999/xlink" preserveAspectRatio="xMidYMid meet" viewBox="0 0 640 640" width="640" height="640"><defs><path d="M581 -1C581 -1 581 -1 581 -1C581 240.2 581 374.2 581 401C581 401 581 401 581 401C231.8 401 37.8 401 -1 401C-1 401 -1 401 -1 401C-1 159.8 -1 25.8 -1 -1C-1 -1 -1 -1 -1 -1C348.2 -1 542.2 -1 581 -1Z" id="a3zAyKMHh8"></path><path d="M416.16 199.33C413.52 299.14 553.06 287.15 550.84 199.33C550.84 199.33 550.84 199.33 550.84 199.33C550.84 238.54 520.69 270.33 483.5 270.33C483.5 270.33 483.5 270.33 483.5 270.33C446.31 270.33 416.16 238.54 416.16 199.33C416.16 199.33 416.16 199.33 416.16 199.33Z" id="eG4SaGCL"></path><path d="M416.12 60.83C424.87 60.83 433.45 62.57 441.39 65.88C449.5 69.25 456.95 74.24 463.26 80.64C466.08 83.5 468.61 86.58 470.85 89.85C478.57 101.12 482.79 114.58 482.79 128.49C482.79 128.49 482.79 128.49 482.79 128.49C482.79 165.86 452.94 196.16 416.12 196.16C416.12 196.16 416.12 196.16 416.12 196.16L416.12 60.83C416.12 60.83 416.12 60.83 416.12 60.83Z" id="jXBVYhdez"></path><path d="M485.79 128.49C485.79 92.23 514.29 62.83 549.45 62.83C549.45 62.83 549.45 62.83 549.45 62.83C548.53 173.51 547.71 78.15 549.45 194.16C549.45 194.16 549.45 194.16 549.45 194.16C514.29 194.16 485.79 164.76 485.79 128.49C485.79 128.49 485.79 128.49 485.79 128.49Z" id="dC4pP9TvL"></path><path d="M4.26 129.48C-8.11 203.89 14.09 278.3 59.76 315.02C69.91 323.13 85.13 331.24 93.06 332.67C105.75 335.53 107.65 337.44 107.65 346.98C107.65 356.52 105.75 357.95 94.33 359.38C81.64 360.81 80.69 361.77 79.74 376.08C79.68 377.13 79.36 382.37 78.79 391.82C90.02 391.82 96.25 391.82 97.5 391.82C107.65 391.82 135.56 393.25 159.35 395.16C202.48 398.02 202.8 398.02 202.8 388C202.8 377.98 201.21 377.51 177.42 377.51C175.73 377.51 167.27 377.51 152.05 377.51L152.05 351.27L152.05 325.04C160.8 318.46 165.67 314.8 166.64 314.07C179.96 304.53 185.67 294.04 177.42 294.04C175.52 294.04 172.67 290.7 171.08 286.88C168.54 281.16 167.91 281.63 167.91 289.74C167.91 299.28 162.52 305.96 154.91 305.96C153.32 305.96 152.05 302.62 152.05 298.81C152.05 294.99 149.83 291.65 147.29 291.65C144.44 291.65 142.54 295.94 142.54 303.1C142.54 317.41 134.92 321.7 110.82 321.7C85.45 321.7 62.93 308.82 44.22 283.54C21.7 253.02 11.87 222.01 9.96 177.18C7.43 110.4 29.31 56.98 70.86 27.4C87.35 15.48 89.57 15 92.74 21.68C95.91 28.36 96.55 27.4 96.87 15C97.18 -2.65 93.06 -3.12 72.13 12.14C34.39 39.33 13.45 75.58 4.26 129.48ZM129.85 358.43C118.43 358.43 117.16 357 117.16 346.98C117.16 335.53 119.07 334.1 138.73 330.29C140.95 330.29 142.54 335.53 142.54 344.12C142.54 357.47 141.9 358.43 129.85 358.43Z" id="f7cRIFSEBa"></path><path d="M167.27 228.69C164.74 232.51 147.61 234.41 111.77 234.41C108.33 234.41 91.09 234.41 60.08 234.41L60.08 253.49L60.08 272.57L117.48 272.57L174.89 272.57L185.67 256.35L196.45 240.14L196.45 144.26L196.45 48.39L183.77 48.39L171.08 48.39L171.08 135.68C170.23 195.14 168.97 226.15 167.27 228.69Z" id="b3vb8sWja"></path><path d="M231.34 163.82C231.34 171.07 231.34 207.32 231.34 272.57L244.03 272.57L256.71 272.57L256.71 193.87L256.71 115.64C287.73 164.01 304.96 190.88 308.41 196.25C380.09 308.82 378.82 309.78 378.82 159.53C378.82 152.28 378.82 116.03 378.82 50.78L365.5 49.34L351.86 47.91L351.86 128.05L351.86 207.7C321.22 159.91 304.2 133.36 300.8 128.05C251.96 51.73 241.49 39.8 233.56 51.73C232.29 53.16 231.34 103.72 231.34 163.82Z" id="a1ay6q9ppK"></path><path d="M237.05 335.53C238.04 335.63 243.01 336.11 251.96 336.96L251.96 356.04L251.96 375.12C243.01 375.12 238.04 375.12 237.05 375.12C218.02 375.12 215.48 366.06 233.88 364.15C244.66 362.72 247.2 360.81 247.2 353.18C247.2 345.55 244.98 344.12 233.24 344.12C217.39 344.12 209.14 353.18 209.14 370.35C209.14 388.48 221.83 398.02 241.17 395.63C250.05 394.2 258.62 389.91 260.2 386.57C264.32 376.55 263.69 332.67 259.25 325.99C253.54 317.41 221.83 318.36 221.83 326.95C221.83 332.19 226.27 334.58 237.05 335.53Z" id="cmIIaLo3r"></path><path d="M281.45 395.63C285.89 394.2 287.16 388 287.79 364.15C287.86 362.18 288.17 352.32 288.75 334.58C295.79 334.58 299.7 334.58 300.48 334.58C316.66 334.58 320.14 341.26 320.14 371.31C320.14 393.25 321.1 396.59 326.49 396.59C332.2 396.59 332.83 393.25 332.83 367.97C332.83 327.9 327.44 320.27 297.94 320.27C296.46 320.27 289.06 320.27 275.74 320.27L275.74 358.91C276.17 384.34 278.07 396.59 281.45 395.63Z" id="e3qX88Y6Dc"></path><path d="M342.35 357.95C342.35 387.05 350.27 396.59 374.06 396.59C390.87 396.59 393.09 395.63 393.09 387.05C393.09 378.46 390.87 377.51 373.74 377.51C372.48 377.51 366.13 377.51 354.71 377.51L355.67 357L356.62 336.96C367.65 336.11 373.79 335.63 375.01 335.53C388.33 334.58 393.09 332.19 393.09 327.42C393.09 321.7 388.33 320.27 370.89 320.27C352.49 320.27 348.37 321.7 345.52 329.33C343.93 334.58 342.35 347.46 342.35 357.95Z" id="a3lLblpcfi"></path><path d="M402.61 360.34C402.61 386.09 410.22 396.59 428.61 396.59C438.44 396.59 440.66 394.68 440.66 387.05C440.66 378.94 438.44 377.51 427.98 377.51C427.13 377.51 422.9 377.51 415.29 377.51L415.29 355.57L415.29 334.1C424.43 334.96 429.5 335.44 430.52 335.53C441.3 336.49 445.42 338.87 445.42 344.12C445.42 348.89 441.3 351.75 432.1 352.7C422.9 353.66 418.46 356.52 418.46 361.29C418.46 366.06 422.59 367.97 434 367.97C446.69 367.97 450.81 366.06 454.62 357.47C466.04 333.15 457.16 320.27 429.56 320.27C412.75 320.27 408.63 321.7 405.78 329.33C404.19 334.58 402.61 348.41 402.61 360.34Z" id="b232eItnnQ"></path><path d="M467.62 365.11C467.62 388.48 468.57 394.2 473.01 395.63C477.45 397.06 478.41 392.29 479.36 367.01C479.42 365.01 479.74 354.99 480.31 336.96C490.39 336.11 496 335.63 497.12 335.53C508.85 334.58 513.61 332.19 513.61 326.95C513.61 316.93 477.77 317.41 472.06 327.9C469.21 332.67 467.62 347.46 467.62 365.11Z" id="asXz86mOP"></path><path d="M521.22 346.03C523.13 357.95 530.74 363.2 547.86 363.2C554.84 363.2 558.01 365.58 558.01 370.35C558.01 376.08 553.89 377.51 538.98 377.51C522.17 377.51 519.95 378.46 519.95 387.05C519.95 395.63 522.17 396.59 538.98 396.59C553.89 396.59 559.28 394.68 564.36 387.05C577.68 367.01 568.16 344.12 545.96 344.12C538.67 344.12 532.64 341.73 532.64 339.35C532.64 336.49 539.93 334.58 548.5 334.58C560.55 334.58 564.36 332.67 564.36 327.42C564.36 317.41 528.83 317.41 523.13 327.42C520.9 331.24 519.95 339.35 521.22 346.03Z" id="azRSgf25E"></path></defs><g><g><g><use xlink:href="#a3zAyKMHh8" opacity="1" fill="#000000" fill-opacity="0"></use><g><use xlink:href="#a3zAyKMHh8" opacity="1" fill-opacity="0" stroke="#000000" stroke-width="1" stroke-opacity="0"></use></g></g><g><use xlink:href="#eG4SaGCL" opacity="1" fill="#ffffff" fill-opacity="0"></use><g><use xlink:href="#eG4SaGCL" opacity="1" fill-opacity="0" stroke="#ffffff" stroke-width="20" stroke-opacity="1"></use></g></g><g><use xlink:href="#jXBVYhdez" opacity="1" fill="#000000" fill-opacity="0"></use><g><use xlink:href="#jXBVYhdez" opacity="1" fill-opacity="0" stroke="#ffffff" stroke-width="20" stroke-opacity="1"></use></g></g><g><use xlink:href="#dC4pP9TvL" opacity="1" fill="#000000" fill-opacity="0"></use><g><use xlink:href="#dC4pP9TvL" opacity="1" fill-opacity="0" stroke="#ffffff" stroke-width="20" stroke-opacity="1"></use></g></g><g><use xlink:href="#f7cRIFSEBa" opacity="1" fill="#ffffff" fill-opacity="1"></use><g><use xlink:href="#f7cRIFSEBa" opacity="1" fill-opacity="0" stroke="#000000" stroke-width="1" stroke-opacity="1"></use></g></g><g><use xlink:href="#b3vb8sWja" opacity="1" fill="#ffffff" fill-opacity="1"></use><g><use xlink:href="#b3vb8sWja" opacity="1" fill-opacity="0" stroke="#000000" stroke-width="1" stroke-opacity="1"></use></g></g><g><use xlink:href="#a1ay6q9ppK" opacity="1" fill="#ffffff" fill-opacity="1"></use><g><use xlink:href="#a1ay6q9ppK" opacity="1" fill-opacity="0" stroke="#000000" stroke-width="1" stroke-opacity="1"></use></g></g><g><use xlink:href="#cmIIaLo3r" opacity="1" fill="#ffffff" fill-opacity="1"></use><g><use xlink:href="#cmIIaLo3r" opacity="1" fill-opacity="0" stroke="#000000" stroke-width="1" stroke-opacity="1"></use></g></g><g><use xlink:href="#e3qX88Y6Dc" opacity="1" fill="#ffffff" fill-opacity="1"></use><g><use xlink:href="#e3qX88Y6Dc" opacity="1" fill-opacity="0" stroke="#000000" stroke-width="1" stroke-opacity="1"></use></g></g><g><use xlink:href="#a3lLblpcfi" opacity="1" fill="#ffffff" fill-opacity="1"></use><g><use xlink:href="#a3lLblpcfi" opacity="1" fill-opacity="0" stroke="#000000" stroke-width="1" stroke-opacity="1"></use></g></g><g><use xlink:href="#b232eItnnQ" opacity="1" fill="#ffffff" fill-opacity="1"></use><g><use xlink:href="#b232eItnnQ" opacity="1" fill-opacity="0" stroke="#000000" stroke-width="1" stroke-opacity="1"></use></g></g><g><use xlink:href="#asXz86mOP" opacity="1" fill="#ffffff" fill-opacity="1"></use><g><use xlink:href="#asXz86mOP" opacity="1" fill-opacity="0" stroke="#000000" stroke-width="1" stroke-opacity="1"></use></g></g><g><use xlink:href="#azRSgf25E" opacity="1" fill="#ffffff" fill-opacity="1"></use><g><use xlink:href="#azRSgf25E" opacity="1" fill-opacity="0" stroke="#000000" stroke-width="1" stroke-opacity="1"></use></g></g></g></g></svg>