<svg xmlns="http://www.w3.org/2000/svg" width="580" height="400" style=""><rect id="backgroundrect" width="100%" height="100%" x="0" y="0" fill="none" stroke="none"/>
 <!-- Created with Method Draw - http://github.com/duopixel/Method-Draw/ -->

 <g style="">
  <title>background</title>
  <rect fill="none" id="canvas_background" height="402" width="582" y="-1" x="-1"/>
  <g display="none" overflow="visible" y="0" x="0" height="100%" width="100%" id="canvasGrid">
   <rect fill="url(#gridpattern)" stroke-width="0" y="0" x="0" height="100%" width="100%" id="svg_1"/>
  </g>
 </g>
 <g style="" class="currentLayer">
  <title>Layer 1</title>
  <metadata transform="matrix(0.4444444709353981,0,0,0.4444444709353981,0,0) ">Created by potrace 1.16, written by Peter Selinger 2001-2019</metadata>
  <path stroke="#ffffff" id="svg_34" d="m416.159026,199.331663l0,0c-2.642489,99.807323 136.904906,87.816689 134.67881,0l0,0c0,39.212101 -30.148887,70.999802 -67.339405,70.999802l0,0c-37.190518,0 -67.339405,-31.7877 -67.339405,-70.999802z" fill-opacity="null" stroke-opacity="1" stroke-width="20" fill="none" class=""/>
  <path stroke="#ffffff" id="svg_36" d="m415.833021,61.502004c0,0 0,0 0,0c17.681045,0 34.637935,7.129124 47.140324,19.819051c12.502401,12.689927 19.526168,29.901154 19.526168,47.847431l0,0c0,37.371158 -29.847601,67.666481 -66.666492,67.666481l0,0l0,-135.332963z" stroke-opacity="1" stroke-width="20" fill="none" class=""/>
  <path stroke="#ffffff" id="svg_37" d="m485.786131,128.491861l0,0c0,-36.266597 28.504471,-65.666494 63.666519,-65.666494l0,0c-0.922696,110.68862 -1.746083,15.322189 0,131.332978l0,0c-35.162048,0 -63.666519,-29.399897 -63.666519,-65.666484z" fill-opacity="null" stroke-opacity="1" stroke-width="20" fill="none" class=""/>
  <g stroke="#ffffff" id="svg_65" class="" stroke-opacity="1" fill="#ffffff" fill-opacity="1">
   <g stroke="#ffffff" id="svg_55" fill="#ffffff" stroke-opacity="1" fill-opacity="1">
    <path stroke="#ffffff" id="svg_56" d="m74.31721412927669,12.869822946132672 c-37.74171214907512,27.18796235739885 -58.67409031578905,63.43857883393065 -67.87165041934517,117.33752175298451 c-12.369132553058233,74.40916013603896 9.831874593456543,148.81832027207793 55.50251786628694,185.54591854435355 c10.149031838406755,8.10869052764527 25.372579596016887,16.21738105529054 33.30151071977216,17.64832644252206 c12.686289798008444,2.8618907744630366 14.58923326770971,4.769817957438395 14.58923326770971,14.309453872315185 c0,9.53963591487679 -1.9029434697012664,10.970581302108307 -13.320604287908866,12.401526689339827 c-12.686289798008444,1.4309453872315183 -13.637761532859077,2.3849089787191975 -14.58923326770971,16.69436285103438 l-0.9514717348506332,15.740399259546702 l18.712277452062455,0 c10.149031838406755,0 38.05886939402533,1.4309453872315183 61.84566276529116,3.3388725702068762 c43.13338531322871,2.8618907744630366 43.45054255817892,2.8618907744630366 43.45054255817892,-7.1547269361575925 c0,-10.016617710620629 -1.5857862247510555,-10.493599506364468 -25.372579596016887,-10.493599506364468 l-25.372579596016887,0 l0,-26.23399876591117 l0,-26.23399876591117 l14.58923326770971,-10.970581302108307 c13.320604287908866,-9.53963591487679 19.029434697012665,-20.033235421241258 10.783346328307177,-20.033235421241258 c-1.9029434697012664,0 -4.757358674253166,-3.3388725702068762 -6.343144899004222,-7.1547269361575925 c-2.5372579596016887,-5.723781548926073 -3.171572449502111,-5.246799753182234 -3.171572449502111,2.8618907744630366 c0,9.53963591487679 -5.391673164153588,16.21738105529054 -13.003447042958655,16.21738105529054 c-1.5857862247510555,0 -2.8544152045519002,-3.3388725702068762 -2.8544152045519002,-7.1547269361575925 c0,-3.815854365950716 -2.2201007146514775,-7.1547269361575925 -4.757358674253166,-7.1547269361575925 c-2.8544152045519002,0 -4.757358674253166,4.292836161694555 -4.757358674253166,11.447563097852147 c0,14.309453872315185 -7.6117738788050655,18.60229003400974 -31.715724495021107,18.60229003400974 c-25.372579596016887,0 -47.890743987481876,-12.878508485083666 -66.60302143954432,-38.15854365950716 c-22.518164391464985,-30.526834927605726 -32.35003898492153,-61.53065165095529 -34.252982454622796,-106.3669404508762 c-2.5372579596016887,-66.77745140413752 19.346591941962878,-120.19941252744755 60.894191030440524,-149.7722838635656 c16.492176737410976,-11.924544893595987 18.712277452062455,-12.401526689339827 21.883849901564563,-5.723781548926073 c3.171572449502111,6.6777451404137524 3.8058869394025328,5.723781548926073 4.123044184352744,-6.6777451404137524 c0.3171572449502112,-17.64832644252206 -3.8058869394025328,-18.1253082382659 -24.738265106116465,-2.8618907744630366 zm70.40890837894686,331.97932983771227 c0,13.355490280827505 -0.6343144899004222,14.309453872315185 -12.686289798008444,14.309453872315185 c-11.417660818207601,0 -12.686289798008444,-1.4309453872315183 -12.686289798008444,-11.447563097852147 c0,-11.447563097852147 1.9029434697012664,-12.878508485083666 21.566692656614354,-16.69436285103438 c2.2201007146514775,0 3.8058869394025328,5.246799753182234 3.8058869394025328,13.832472076571344 z" stroke-width="0" stroke-opacity="1" fill="#ffffff" fill-opacity="1"/>
    <path stroke="#ffffff" id="svg_57" d="m173.27027455374252,136.40810804378708 c0,61.53065165095529 -1.2686289798008445,89.19559580409798 -3.8058869394025328,93.0114501700487 c-2.5372579596016887,3.815854365950716 -19.663749186913087,5.723781548926073 -55.50251786628694,5.723781548926073 l-51.6966309268844,0 l0,19.07927182975358 l0,19.07927182975358 l57.40546133598821,0 l57.40546133598821,0 l10.783346328307177,-16.21738105529054 l10.783346328307177,-16.21738105529054 l0,-95.87334094451174 l0,-95.87334094451174 l-12.686289798008444,0 l-12.686289798008444,0 l0,87.28766862112262 z" stroke-width="0" stroke-opacity="1" fill="#ffffff" fill-opacity="1"/>
    <path stroke="#ffffff" id="svg_58" d="m235.7502518089342,52.459311992871335 c-1.2686289798008445,1.4309453872315183 -2.2201007146514775,51.9910157360785 -2.2201007146514775,112.09072199980228 l0,108.7518494295954 l12.686289798008444,0 l12.686289798008444,0 l0,-78.70199629773352 l0,-78.22501450198968 l51.6966309268844,80.60992348070887 c71.6775373587477,112.56770379554612 70.40890837894686,113.5216673870338 70.40890837894686,-36.72759827227564 l0,-108.7518494295954 l-13.320604287908866,-1.4309453872315183 l-13.637761532859077,-1.4309453872315183 l0,80.13294168496503 l0,79.6559598892212 l-51.062316436983984,-79.6559598892212 c-48.842215722332504,-76.31708731901432 -59.30840480568947,-88.2416322126103 -67.23733592944475,-76.31708731901432 z" stroke-width="0" stroke-opacity="1" fill="#ffffff" fill-opacity="1"/>
    <path stroke="#ffffff" id="svg_59" d="m224.01543374577636,327.6778081370667 c0,5.246799753182234 4.440201429302955,7.631708731901432 15.223547757610131,8.58567232338911 l14.906390512659922,1.4309453872315183 l0,19.07927182975358 l0,19.07927182975358 l-14.906390512659922,0 c-19.029434697012665,0 -21.566692656614354,-9.06265411913295 -3.171572449502111,-10.970581302108307 c10.783346328307177,-1.4309453872315183 13.320604287908866,-3.3388725702068762 13.320604287908866,-10.970581302108307 c0,-7.631708731901432 -2.2201007146514775,-9.06265411913295 -13.954918777809288,-9.06265411913295 c-15.857862247510553,0 -24.103950616216043,9.06265411913295 -24.103950616216043,26.23399876591117 c0,18.1253082382659 12.686289798008444,27.664944153142688 32.032881739971316,25.280035174423492 c8.88040285860591,-1.4309453872315183 17.44364847226161,-5.723781548926073 19.029434697012665,-9.06265411913295 c4.123044184352744,-10.016617710620629 3.488729694452322,-53.89894291905386 -0.9514717348506332,-60.576688059467614 c-5.7088304091038005,-8.58567232338911 -37.42455490412491,-7.631708731901432 -37.42455490412491,0.953963591487679 z" stroke-width="0" stroke-opacity="1" fill="#ffffff" fill-opacity="1"/>
    <path stroke="#ffffff" id="svg_60" d="m277.93216538731224,359.63558845190397 c0,33.8657074978126 0.6343144899004222,38.15854365950716 5.7088304091038005,36.72759827227564 c4.440201429302955,-1.4309453872315183 5.7088304091038005,-7.631708731901432 6.343144899004222,-31.480798519093405 l0.9514717348506332,-29.572871336118048 l11.73481806315781,0 c16.175019492460766,0 19.663749186913087,6.6777451404137524 19.663749186913087,36.72759827227564 c0,21.941162604216615 0.9514717348506332,25.280035174423492 6.343144899004222,25.280035174423492 c5.7088304091038005,0 6.343144899004222,-3.3388725702068762 6.343144899004222,-28.61890774463037 c0,-40.066470842482516 -5.391673164153588,-47.69817957438395 -34.88729694452322,-47.69817957438395 l-22.201007146514776,0 l0,38.635525455251 z" stroke-width="0" stroke-opacity="1" fill="#ffffff" fill-opacity="1"/>
    <path stroke="#ffffff" id="svg_61" d="m347.70675927635864,330.0627171157859 c-1.5857862247510555,5.246799753182234 -3.171572449502111,18.1253082382659 -3.171572449502111,28.61890774463037 c0,29.09588954037421 7.928931123755277,38.635525455251 31.715724495021107,38.635525455251 c16.80933398236119,0 19.029434697012665,-0.953963591487679 19.029434697012665,-9.53963591487679 c0,-8.58567232338911 -2.2201007146514775,-9.53963591487679 -19.346591941962878,-9.53963591487679 l-19.029434697012665,0 l0.9514717348506332,-20.510217216985097 l0.9514717348506332,-20.033235421241258 l18.395120207112242,-1.4309453872315183 c13.320604287908866,-0.953963591487679 18.077962962162033,-3.3388725702068762 18.077962962162033,-8.10869052764527 c0,-5.723781548926073 -4.757358674253166,-7.1547269361575925 -22.201007146514776,-7.1547269361575925 c-18.395120207112242,0 -22.518164391464985,1.4309453872315183 -25.372579596016887,9.06265411913295 z" stroke-width="0" stroke-opacity="1" fill="#ffffff" fill-opacity="1"/>
    <path stroke="#ffffff" id="svg_62" d="m407.9666358168988,330.0627171157859 c-1.5857862247510555,5.246799753182234 -3.171572449502111,19.07927182975358 -3.171572449502111,31.003816723349566 c0,25.75701697016733 7.6117738788050655,36.2506164765318 26.00689408591731,36.2506164765318 c9.831874593456543,0 12.051975308108021,-1.907927182975358 12.051975308108021,-9.53963591487679 c0,-8.10869052764527 -2.2201007146514775,-9.53963591487679 -12.686289798008444,-9.53963591487679 l-12.686289798008444,0 l0,-21.941162604216615 l0,-21.464180808472776 l15.223547757610131,1.4309453872315183 c10.783346328307177,0.953963591487679 14.906390512659922,3.3388725702068762 14.906390512659922,8.58567232338911 c0,4.769817957438395 -4.123044184352744,7.631708731901432 -13.320604287908866,8.58567232338911 c-9.197560103556121,0.953963591487679 -13.637761532859077,3.815854365950716 -13.637761532859077,8.58567232338911 c0,4.769817957438395 4.123044184352744,6.6777451404137524 15.540705002560342,6.6777451404137524 c12.686289798008444,0 16.80933398236119,-1.907927182975358 20.61522092176372,-10.493599506364468 c11.417660818207601,-24.326071582935814 2.5372579596016887,-37.20458006801948 -25.055422351066674,-37.20458006801948 c-16.80933398236119,0 -20.93237816671393,1.4309453872315183 -23.78679337126583,9.06265411913295 z" stroke-width="0" stroke-opacity="1" fill="#ffffff" fill-opacity="1"/>
    <path stroke="#ffffff" id="svg_63" d="m474.2525000114929,328.6317717285544 c-2.8544152045519002,4.769817957438395 -4.440201429302955,19.55625362549742 -4.440201429302955,37.20458006801948 c0,23.372107991448136 0.9514717348506332,29.09588954037421 5.391673164153588,30.526834927605726 c4.440201429302955,1.4309453872315183 5.391673164153588,-3.3388725702068762 6.343144899004222,-28.61890774463037 l0.9514717348506332,-30.049853131861887 l16.80933398236119,-1.4309453872315183 c11.73481806315781,-0.953963591487679 16.492176737410976,-3.3388725702068762 16.492176737410976,-8.58567232338911 c0,-10.016617710620629 -35.83876867937385,-9.53963591487679 -41.547599088477654,0.953963591487679 z" stroke-width="0" stroke-opacity="1" fill="#ffffff" fill-opacity="1"/>
    <path stroke="#ffffff" id="svg_64" d="m525.3148164484769,328.15478993281056 c-2.2201007146514775,3.815854365950716 -3.171572449502111,11.924544893595987 -1.9029434697012664,18.60229003400974 c1.9029434697012664,11.924544893595987 9.514717348506332,17.17134464677822 26.641208575817732,17.17134464677822 c6.977459388904644,0 10.149031838406755,2.3849089787191975 10.149031838406755,7.1547269361575925 c0,5.723781548926073 -4.123044184352744,7.1547269361575925 -19.029434697012665,7.1547269361575925 c-16.80933398236119,0 -19.029434697012665,0.953963591487679 -19.029434697012665,9.53963591487679 c0,8.58567232338911 2.2201007146514775,9.53963591487679 19.029434697012665,9.53963591487679 c14.906390512659922,0 20.29806367681351,-1.907927182975358 25.372579596016887,-9.53963591487679 c13.320604287908866,-20.033235421241258 3.8058869394025328,-42.92836161694555 -18.395120207112242,-42.92836161694555 c-7.294616633854855,0 -13.320604287908866,-2.3849089787191975 -13.320604287908866,-4.769817957438395 c0,-2.8618907744630366 7.294616633854855,-4.769817957438395 15.857862247510553,-4.769817957438395 c12.051975308108021,0 15.857862247510553,-1.907927182975358 15.857862247510553,-7.1547269361575925 c0,-10.016617710620629 -35.52161143442364,-10.016617710620629 -41.23044184352744,0 z" stroke-width="0" stroke-opacity="1" fill="#ffffff" fill-opacity="1"/>
   </g>
  </g>
 </g>
</svg>