<svg width="580" height="400" xmlns="http://www.w3.org/2000/svg">
 <!-- Created with Method Draw - http://github.com/duopixel/Method-Draw/ -->

 <g>
  <title>background</title>
  <rect fill="none" id="canvas_background" height="402" width="582" y="-1" x="-1"/>
  <g display="none" overflow="visible" y="0" x="0" height="100%" width="100%" id="canvasGrid">
   <rect fill="url(#gridpattern)" stroke-width="0" y="0" x="0" height="100%" width="100%"/>
  </g>
 </g>
 <g>
  <title>Layer 1</title>
  <metadata transform="matrix(0.4444444709353981,0,0,0.4444444709353981,0,0) ">Created by potrace 1.16, written by Peter Selinger 2001-2019</metadata>
  <path stroke="#000" id="svg_34" d="m416.159026,199.331663l0,0c-2.642489,99.807323 136.904906,87.816689 134.67881,0l0,0c0,39.212101 -30.148887,70.999802 -67.339405,70.999802l0,0c-37.190518,0 -67.339405,-31.7877 -67.339405,-70.999802z" fill-opacity="null" stroke-opacity="null" stroke-width="20" fill="none"/>
  <path stroke="#000" id="svg_36" d="m415.833021,61.502004c0,0 0,0 0,0c17.681045,0 34.637935,7.129124 47.140324,19.819051c12.502401,12.689927 19.526168,29.901154 19.526168,47.847431l0,0c0,37.371158 -29.847601,67.666481 -66.666492,67.666481l0,0l0,-135.332963z" fill-opacity="null" stroke-opacity="null" stroke-width="20" fill="none"/>
  <path stroke="#000" id="svg_37" d="m485.786131,128.491861l0,0c0,-36.266597 28.504471,-65.666494 63.666519,-65.666494l0,0c-0.922696,110.68862 -1.746083,15.322189 0,131.332978l0,0c-35.162048,0 -63.666519,-29.399897 -63.666519,-65.666484z" fill-opacity="null" stroke-opacity="null" stroke-width="20" fill="none"/>
  <g stroke="null" id="svg_65">
   <g stroke="null" id="svg_55" fill="#000000" transform="matrix(0.3171572449502111,0,0,-0.4769817957438395,-433.219759269619,380.25668118784364) ">
    <path stroke="null" id="svg_56" d="m1593.364807,771.762756c-119,-57 -185,-133 -214,-246c-39,-156 31,-312 175,-389c32,-17 80,-34 105,-37c40,-6 46,-10 46,-30c0,-20 -6,-23 -42,-26c-40,-3 -43,-5 -46,-35l-3,-33l59,0c32,0 120,-3 195,-7c136,-6 137,-6 137,15c0,21 -5,22 -80,22l-80,0l0,55l0,55l46,23c42,20 60,42 34,42c-6,0 -15,7 -20,15c-8,12 -10,11 -10,-6c0,-20 -17,-34 -41,-34c-5,0 -9,7 -9,15c0,8 -7,15 -15,15c-9,0 -15,-9 -15,-24c0,-30 -24,-39 -100,-39c-80,0 -151,27 -210,80c-71,64 -102,129 -108,223c-8,140 61,252 192,314c52,25 59,26 69,12c10,-14 12,-12 13,14c1,37 -12,38 -78,6zm222,-696c0,-28 -2,-30 -40,-30c-36,0 -40,3 -40,24c0,24 6,27 68,35c7,0 12,-11 12,-29z"/>
    <path stroke="null" id="svg_57" d="m1905.364807,512.762756c0,-129 -4,-187 -12,-195c-8,-8 -62,-12 -175,-12l-163,0l0,-40l0,-40l181,0l181,0l34,34l34,34l0,201l0,201l-40,0l-40,0l0,-183z"/>
    <path stroke="null" id="svg_58" d="m2102.364807,688.762756c-4,-3 -7,-109 -7,-235l0,-228l40,0l40,0l0,165l0,164l163,-169c226,-236 222,-238 222,77l0,228l-42,3l-43,3l0,-168l0,-167l-161,167c-154,160 -187,185 -212,160z"/>
    <path stroke="null" id="svg_59" d="m2065.364807,111.762756c0,-11 14,-16 48,-18l47,-3l0,-40l0,-40l-47,0c-60,0 -68,19 -10,23c34,3 42,7 42,23c0,16 -7,19 -44,19c-50,0 -76,-19 -76,-55c0,-38 40,-58 101,-53c28,3 55,12 60,19c13,21 11,113 -3,127c-18,18 -118,16 -118,-2z"/>
    <path stroke="null" id="svg_60" d="m2235.364807,44.762756c0,-71 2,-80 18,-77c14,3 18,16 20,66l3,62l37,0c51,0 62,-14 62,-77c0,-46 3,-53 20,-53c18,0 20,7 20,60c0,84 -17,100 -110,100l-70,0l0,-81z"/>
    <path stroke="null" id="svg_61" d="m2455.364807,106.762756c-5,-11 -10,-38 -10,-60c0,-61 25,-81 100,-81c53,0 60,2 60,20c0,18 -7,20 -61,20l-60,0l3,43l3,42l58,3c42,2 57,7 57,17c0,12 -15,15 -70,15c-58,0 -71,-3 -80,-19z"/>
    <path stroke="null" id="svg_62" d="m2645.364807,106.762756c-5,-11 -10,-40 -10,-65c0,-54 24,-76 82,-76c31,0 38,4 38,20c0,17 -7,20 -40,20l-40,0l0,46l0,45l48,-3c34,-2 47,-7 47,-18c0,-10 -13,-16 -42,-18c-29,-2 -43,-8 -43,-18c0,-10 13,-14 49,-14c40,0 53,4 65,22c36,51 8,78 -79,78c-53,0 -66,-3 -75,-19z"/>
    <path stroke="null" id="svg_63" d="m2854.364807,109.762756c-9,-10 -14,-41 -14,-78c0,-49 3,-61 17,-64c14,-3 17,7 20,60l3,63l53,3c37,2 52,7 52,18c0,21 -113,20 -131,-2z"/>
    <path stroke="null" id="svg_64" d="m3015.364807,110.762756c-7,-8 -10,-25 -6,-39c6,-25 30,-36 84,-36c22,0 32,-5 32,-15c0,-12 -13,-15 -60,-15c-53,0 -60,-2 -60,-20c0,-18 7,-20 60,-20c47,0 64,4 80,20c42,42 12,90 -58,90c-23,0 -42,5 -42,10c0,6 23,10 50,10c38,0 50,4 50,15c0,21 -112,21 -130,0z"/>
   </g>
  </g>
 </g>
</svg>